<mxfile host="app.diagrams.net" modified="2022-05-01T18:38:05.601Z" agent="5.0 (Windows NT 10.0; Win64; x64) AppleWebKit/537.36 (KHTML, like Gecko) Chrome/100.0.4896.127 Safari/537.36" etag="rV-cVJEvkxWcRUP0KVwb" version="17.5.0" type="github">
  <diagram id="bj6Q8kGTr0pkgQq6tZRm" name="Seite-1">
    <mxGraphModel dx="1153" dy="714" grid="1" gridSize="10" guides="1" tooltips="1" connect="1" arrows="1" fold="1" page="1" pageScale="1" pageWidth="827" pageHeight="1169" math="0" shadow="0">
      <root>
        <mxCell id="0" />
        <mxCell id="1" parent="0" />
        <mxCell id="77sjMMR5Yvf_XChXpcGN-28" value="Card" style="swimlane;fontStyle=0;childLayout=stackLayout;horizontal=1;startSize=26;fillColor=none;horizontalStack=0;resizeParent=1;resizeParentMax=0;resizeLast=0;collapsible=1;marginBottom=0;" parent="1" vertex="1">
          <mxGeometry x="160" y="387" width="140" height="78" as="geometry" />
        </mxCell>
        <mxCell id="77sjMMR5Yvf_XChXpcGN-29" value="- suit: Suit" style="text;strokeColor=none;fillColor=none;align=left;verticalAlign=top;spacingLeft=4;spacingRight=4;overflow=hidden;rotatable=0;points=[[0,0.5],[1,0.5]];portConstraint=eastwest;" parent="77sjMMR5Yvf_XChXpcGN-28" vertex="1">
          <mxGeometry y="26" width="140" height="26" as="geometry" />
        </mxCell>
        <mxCell id="77sjMMR5Yvf_XChXpcGN-30" value="- label: Label" style="text;strokeColor=none;fillColor=none;align=left;verticalAlign=top;spacingLeft=4;spacingRight=4;overflow=hidden;rotatable=0;points=[[0,0.5],[1,0.5]];portConstraint=eastwest;" parent="77sjMMR5Yvf_XChXpcGN-28" vertex="1">
          <mxGeometry y="52" width="140" height="26" as="geometry" />
        </mxCell>
        <mxCell id="77sjMMR5Yvf_XChXpcGN-31" value="Player" style="swimlane;fontStyle=0;childLayout=stackLayout;horizontal=1;startSize=26;fillColor=none;horizontalStack=0;resizeParent=1;resizeParentMax=0;resizeLast=0;collapsible=1;marginBottom=0;" parent="1" vertex="1">
          <mxGeometry x="615" y="540" width="190" height="260" as="geometry" />
        </mxCell>
        <mxCell id="77sjMMR5Yvf_XChXpcGN-32" value="- id: Long" style="text;strokeColor=none;fillColor=none;align=left;verticalAlign=top;spacingLeft=4;spacingRight=4;overflow=hidden;rotatable=0;points=[[0,0.5],[1,0.5]];portConstraint=eastwest;" parent="77sjMMR5Yvf_XChXpcGN-31" vertex="1">
          <mxGeometry y="26" width="190" height="26" as="geometry" />
        </mxCell>
        <mxCell id="77sjMMR5Yvf_XChXpcGN-34" value="- name: String" style="text;strokeColor=none;fillColor=none;align=left;verticalAlign=top;spacingLeft=4;spacingRight=4;overflow=hidden;rotatable=0;points=[[0,0.5],[1,0.5]];portConstraint=eastwest;" parent="77sjMMR5Yvf_XChXpcGN-31" vertex="1">
          <mxGeometry y="52" width="190" height="26" as="geometry" />
        </mxCell>
        <mxCell id="77sjMMR5Yvf_XChXpcGN-35" value="- isActive: Boolean" style="text;strokeColor=none;fillColor=none;align=left;verticalAlign=top;spacingLeft=4;spacingRight=4;overflow=hidden;rotatable=0;points=[[0,0.5],[1,0.5]];portConstraint=eastwest;" parent="77sjMMR5Yvf_XChXpcGN-31" vertex="1">
          <mxGeometry y="78" width="190" height="26" as="geometry" />
        </mxCell>
        <mxCell id="S1vb69_Zerg-ERHGtHPL-10" value="- mustDraw: Boolean" style="text;strokeColor=none;fillColor=none;align=left;verticalAlign=top;spacingLeft=4;spacingRight=4;overflow=hidden;rotatable=0;points=[[0,0.5],[1,0.5]];portConstraint=eastwest;" parent="77sjMMR5Yvf_XChXpcGN-31" vertex="1">
          <mxGeometry y="104" width="190" height="26" as="geometry" />
        </mxCell>
        <mxCell id="LWqvd5Fts955x7SQUY-z-13" value="- numOfDrawCards: Long" style="text;strokeColor=none;fillColor=none;align=left;verticalAlign=top;spacingLeft=4;spacingRight=4;overflow=hidden;rotatable=0;points=[[0,0.5],[1,0.5]];portConstraint=eastwest;" parent="77sjMMR5Yvf_XChXpcGN-31" vertex="1">
          <mxGeometry y="130" width="190" height="26" as="geometry" />
        </mxCell>
        <mxCell id="S1vb69_Zerg-ERHGtHPL-12" value="- mustSuspend: Boolean" style="text;strokeColor=none;fillColor=none;align=left;verticalAlign=top;spacingLeft=4;spacingRight=4;overflow=hidden;rotatable=0;points=[[0,0.5],[1,0.5]];portConstraint=eastwest;" parent="77sjMMR5Yvf_XChXpcGN-31" vertex="1">
          <mxGeometry y="156" width="190" height="26" as="geometry" />
        </mxCell>
        <mxCell id="S1vb69_Zerg-ERHGtHPL-13" value="- suitWish: Suit" style="text;strokeColor=none;fillColor=none;align=left;verticalAlign=top;spacingLeft=4;spacingRight=4;overflow=hidden;rotatable=0;points=[[0,0.5],[1,0.5]];portConstraint=eastwest;" parent="77sjMMR5Yvf_XChXpcGN-31" vertex="1">
          <mxGeometry y="182" width="190" height="26" as="geometry" />
        </mxCell>
        <mxCell id="DhQfvevI-bPjPN9J5ntj-5" value="- hasGivenUp: Boolean" style="text;strokeColor=none;fillColor=none;align=left;verticalAlign=top;spacingLeft=4;spacingRight=4;overflow=hidden;rotatable=0;points=[[0,0.5],[1,0.5]];portConstraint=eastwest;" vertex="1" parent="77sjMMR5Yvf_XChXpcGN-31">
          <mxGeometry y="208" width="190" height="26" as="geometry" />
        </mxCell>
        <mxCell id="77sjMMR5Yvf_XChXpcGN-36" value="- hasSaidMaumau: Boolean" style="text;strokeColor=none;fillColor=none;align=left;verticalAlign=top;spacingLeft=4;spacingRight=4;overflow=hidden;rotatable=0;points=[[0,0.5],[1,0.5]];portConstraint=eastwest;" parent="77sjMMR5Yvf_XChXpcGN-31" vertex="1">
          <mxGeometry y="234" width="190" height="26" as="geometry" />
        </mxCell>
        <mxCell id="DhQfvevI-bPjPN9J5ntj-11" style="edgeStyle=orthogonalEdgeStyle;rounded=0;orthogonalLoop=1;jettySize=auto;html=1;startArrow=none;startFill=0;endArrow=open;endFill=0;endSize=14;" edge="1" parent="1" source="DhQfvevI-bPjPN9J5ntj-12" target="77sjMMR5Yvf_XChXpcGN-28">
          <mxGeometry relative="1" as="geometry">
            <Array as="points">
              <mxPoint x="370" y="440" />
            </Array>
          </mxGeometry>
        </mxCell>
        <mxCell id="77sjMMR5Yvf_XChXpcGN-37" value="Deck" style="swimlane;fontStyle=0;childLayout=stackLayout;horizontal=1;startSize=26;fillColor=none;horizontalStack=0;resizeParent=1;resizeParentMax=0;resizeLast=0;collapsible=1;marginBottom=0;" parent="1" vertex="1">
          <mxGeometry x="435" y="400" width="140" height="52" as="geometry" />
        </mxCell>
        <mxCell id="77sjMMR5Yvf_XChXpcGN-39" value="- totalAmount: Long" style="text;strokeColor=none;fillColor=none;align=left;verticalAlign=top;spacingLeft=4;spacingRight=4;overflow=hidden;rotatable=0;points=[[0,0.5],[1,0.5]];portConstraint=eastwest;" parent="77sjMMR5Yvf_XChXpcGN-37" vertex="1">
          <mxGeometry y="26" width="140" height="26" as="geometry" />
        </mxCell>
        <mxCell id="77sjMMR5Yvf_XChXpcGN-44" value="Game" style="swimlane;fontStyle=0;childLayout=stackLayout;horizontal=1;startSize=26;fillColor=none;horizontalStack=0;resizeParent=1;resizeParentMax=0;resizeLast=0;collapsible=1;marginBottom=0;" parent="1" vertex="1">
          <mxGeometry x="640" y="400" width="140" height="52" as="geometry" />
        </mxCell>
        <mxCell id="DhQfvevI-bPjPN9J5ntj-2" value="- isCanceled: Boolean" style="text;strokeColor=none;fillColor=none;align=left;verticalAlign=top;spacingLeft=4;spacingRight=4;overflow=hidden;rotatable=0;points=[[0,0.5],[1,0.5]];portConstraint=eastwest;" vertex="1" parent="77sjMMR5Yvf_XChXpcGN-44">
          <mxGeometry y="26" width="140" height="26" as="geometry" />
        </mxCell>
        <mxCell id="77sjMMR5Yvf_XChXpcGN-47" value="&lt;p style=&quot;margin: 0px ; margin-top: 4px ; text-align: center&quot;&gt;&amp;lt;&amp;lt;enumeration&amp;gt;&amp;gt;&lt;b&gt;&lt;br&gt;&lt;/b&gt;&lt;/p&gt;&lt;p style=&quot;margin: 0px ; margin-top: 4px ; text-align: center&quot;&gt;&lt;b&gt;Suit&lt;/b&gt;&lt;br&gt;&lt;b&gt;&lt;/b&gt;&lt;/p&gt;&lt;hr&gt;&lt;p style=&quot;margin: 0px ; margin-left: 8px ; text-align: left&quot;&gt;&lt;span&gt;CLUBS&lt;/span&gt;&lt;/p&gt;&lt;p style=&quot;margin: 0px ; margin-left: 8px ; text-align: left&quot;&gt;&lt;span&gt;SPADES&lt;/span&gt;&lt;br&gt;&lt;/p&gt;&lt;p style=&quot;margin: 0px ; margin-left: 8px ; text-align: left&quot;&gt;HEARTS&lt;/p&gt;&lt;p style=&quot;margin: 0px ; margin-left: 8px ; text-align: left&quot;&gt;DIAMONDS&lt;br&gt;&lt;/p&gt;&lt;p style=&quot;margin: 0px ; margin-left: 8px ; text-align: left&quot;&gt;&lt;br&gt;&lt;/p&gt;&lt;p style=&quot;margin: 0px ; margin-left: 8px ; text-align: left&quot;&gt;&lt;br&gt;&lt;/p&gt;" style="shape=rect;html=1;overflow=fill;whiteSpace=wrap;" parent="1" vertex="1">
          <mxGeometry x="20" y="180" width="200" height="110" as="geometry" />
        </mxCell>
        <mxCell id="77sjMMR5Yvf_XChXpcGN-48" value="1" style="endArrow=open;html=1;endSize=12;startArrow=none;startSize=14;startFill=1;edgeStyle=orthogonalEdgeStyle;align=left;verticalAlign=bottom;rounded=0;" parent="1" source="DhQfvevI-bPjPN9J5ntj-15" edge="1">
          <mxGeometry x="-1" y="-91" relative="1" as="geometry">
            <mxPoint x="170" y="560" as="sourcePoint" />
            <mxPoint x="300" y="410" as="targetPoint" />
            <mxPoint x="90" y="81" as="offset" />
            <Array as="points">
              <mxPoint x="300" y="410" />
            </Array>
          </mxGeometry>
        </mxCell>
        <mxCell id="S1vb69_Zerg-ERHGtHPL-17" value="1 .. 32" style="edgeLabel;html=1;align=center;verticalAlign=middle;resizable=0;points=[];" parent="77sjMMR5Yvf_XChXpcGN-48" vertex="1" connectable="0">
          <mxGeometry x="0.7524" y="-1" relative="1" as="geometry">
            <mxPoint x="16" y="-15" as="offset" />
          </mxGeometry>
        </mxCell>
        <mxCell id="LWqvd5Fts955x7SQUY-z-18" value="1" style="endArrow=open;html=1;endSize=12;startArrow=diamondThin;startSize=14;startFill=1;edgeStyle=orthogonalEdgeStyle;align=left;verticalAlign=bottom;rounded=0;" parent="1" source="77sjMMR5Yvf_XChXpcGN-44" target="77sjMMR5Yvf_XChXpcGN-31" edge="1">
          <mxGeometry x="-0.4641" y="15" relative="1" as="geometry">
            <mxPoint x="703" y="460" as="sourcePoint" />
            <mxPoint x="765" y="300" as="targetPoint" />
            <Array as="points" />
            <mxPoint as="offset" />
          </mxGeometry>
        </mxCell>
        <mxCell id="S1vb69_Zerg-ERHGtHPL-5" value="2..4" style="edgeLabel;html=1;align=center;verticalAlign=middle;resizable=0;points=[];" parent="LWqvd5Fts955x7SQUY-z-18" vertex="1" connectable="0">
          <mxGeometry x="0.682" y="3" relative="1" as="geometry">
            <mxPoint x="17" y="-1" as="offset" />
          </mxGeometry>
        </mxCell>
        <mxCell id="S1vb69_Zerg-ERHGtHPL-6" value="1" style="endArrow=open;html=1;endSize=12;startArrow=diamondThin;startSize=14;startFill=1;edgeStyle=orthogonalEdgeStyle;align=left;verticalAlign=bottom;rounded=0;" parent="1" source="77sjMMR5Yvf_XChXpcGN-44" target="77sjMMR5Yvf_XChXpcGN-37" edge="1">
          <mxGeometry x="-0.5385" y="-9" relative="1" as="geometry">
            <mxPoint x="405" y="360" as="sourcePoint" />
            <mxPoint x="565" y="360" as="targetPoint" />
            <Array as="points">
              <mxPoint x="615" y="426" />
              <mxPoint x="615" y="426" />
            </Array>
            <mxPoint as="offset" />
          </mxGeometry>
        </mxCell>
        <mxCell id="S1vb69_Zerg-ERHGtHPL-7" value="1" style="edgeLabel;html=1;align=center;verticalAlign=middle;resizable=0;points=[];" parent="S1vb69_Zerg-ERHGtHPL-6" vertex="1" connectable="0">
          <mxGeometry x="0.6869" y="1" relative="1" as="geometry">
            <mxPoint y="-20" as="offset" />
          </mxGeometry>
        </mxCell>
        <mxCell id="S1vb69_Zerg-ERHGtHPL-14" value="&lt;p style=&quot;margin: 0px ; margin-top: 4px ; text-align: center&quot;&gt;&amp;lt;&amp;lt;enumeration&amp;gt;&amp;gt;&lt;b&gt;&lt;br&gt;&lt;/b&gt;&lt;/p&gt;&lt;p style=&quot;margin: 0px ; margin-top: 4px ; text-align: center&quot;&gt;&lt;b&gt;Label&lt;/b&gt;&lt;br&gt;&lt;b&gt;&lt;/b&gt;&lt;/p&gt;&lt;hr&gt;&lt;p style=&quot;margin: 0px ; margin-left: 8px ; text-align: left&quot;&gt;ASS&lt;/p&gt;&lt;p style=&quot;margin: 0px ; margin-left: 8px ; text-align: left&quot;&gt;KING&lt;br&gt;&lt;/p&gt;&lt;p style=&quot;margin: 0px ; margin-left: 8px ; text-align: left&quot;&gt;LADY&lt;br&gt;&lt;/p&gt;&lt;p style=&quot;margin: 0px ; margin-left: 8px ; text-align: left&quot;&gt;JACK&lt;/p&gt;&lt;p style=&quot;margin: 0px ; margin-left: 8px ; text-align: left&quot;&gt;TEN&lt;/p&gt;&lt;p style=&quot;margin: 0px ; margin-left: 8px ; text-align: left&quot;&gt;NINE&lt;/p&gt;&lt;p style=&quot;margin: 0px ; margin-left: 8px ; text-align: left&quot;&gt;EIGHT&lt;/p&gt;&lt;p style=&quot;margin: 0px ; margin-left: 8px ; text-align: left&quot;&gt;SEVEN&lt;br&gt;&lt;/p&gt;&lt;p style=&quot;margin: 0px ; margin-left: 8px ; text-align: left&quot;&gt;&lt;br&gt;&lt;/p&gt;&lt;p style=&quot;margin: 0px ; margin-left: 8px ; text-align: left&quot;&gt;&lt;br&gt;&lt;/p&gt;" style="shape=rect;html=1;overflow=fill;whiteSpace=wrap;" parent="1" vertex="1">
          <mxGeometry x="240" y="160" width="200" height="170" as="geometry" />
        </mxCell>
        <mxCell id="d6jPl4z7u86NwUNu5akU-13" value="" style="endArrow=open;endFill=1;endSize=12;html=1;rounded=0;entryX=0.87;entryY=1.038;entryDx=0;entryDy=0;entryPerimeter=0;exitX=0.25;exitY=0;exitDx=0;exitDy=0;" parent="1" source="77sjMMR5Yvf_XChXpcGN-28" target="77sjMMR5Yvf_XChXpcGN-47" edge="1">
          <mxGeometry width="160" relative="1" as="geometry">
            <mxPoint x="40" y="580" as="sourcePoint" />
            <mxPoint x="200" y="580" as="targetPoint" />
          </mxGeometry>
        </mxCell>
        <mxCell id="d6jPl4z7u86NwUNu5akU-14" value="" style="endArrow=open;endFill=1;endSize=12;html=1;rounded=0;exitX=0.854;exitY=-0.003;exitDx=0;exitDy=0;exitPerimeter=0;entryX=0.198;entryY=1;entryDx=0;entryDy=0;entryPerimeter=0;" parent="1" source="77sjMMR5Yvf_XChXpcGN-28" target="S1vb69_Zerg-ERHGtHPL-14" edge="1">
          <mxGeometry width="160" relative="1" as="geometry">
            <mxPoint x="260" y="360" as="sourcePoint" />
            <mxPoint x="420" y="360" as="targetPoint" />
          </mxGeometry>
        </mxCell>
        <object label="" dvdv="" id="DhQfvevI-bPjPN9J5ntj-6">
          <mxCell style="edgeStyle=orthogonalEdgeStyle;rounded=0;orthogonalLoop=1;jettySize=auto;html=1;startArrow=none;startFill=0;endArrow=open;endFill=0;endSize=12;" edge="1" parent="1" source="S1vb69_Zerg-ERHGtHPL-10" target="77sjMMR5Yvf_XChXpcGN-28">
            <mxGeometry relative="1" as="geometry">
              <Array as="points">
                <mxPoint x="230" y="657" />
              </Array>
            </mxGeometry>
          </mxCell>
        </object>
        <mxCell id="DhQfvevI-bPjPN9J5ntj-7" value="UML Class diagram - Mau-Mau Card game" style="text;align=center;fontStyle=1;verticalAlign=middle;spacingLeft=3;spacingRight=3;strokeColor=none;rotatable=0;points=[[0,0.5],[1,0.5]];portConstraint=eastwest;fontSize=18;" vertex="1" parent="1">
          <mxGeometry x="170" y="80" width="390" height="26" as="geometry" />
        </mxCell>
        <mxCell id="DhQfvevI-bPjPN9J5ntj-8" value="0 .. n" style="text;html=1;resizable=0;autosize=1;align=center;verticalAlign=middle;points=[];fillColor=none;strokeColor=none;rounded=0;" vertex="1" parent="1">
          <mxGeometry x="240" y="469" width="40" height="20" as="geometry" />
        </mxCell>
        <mxCell id="DhQfvevI-bPjPN9J5ntj-10" value="0 .. 1" style="text;html=1;resizable=0;autosize=1;align=center;verticalAlign=middle;points=[];fillColor=none;strokeColor=none;rounded=0;" vertex="1" parent="1">
          <mxGeometry x="570" y="630" width="40" height="20" as="geometry" />
        </mxCell>
        <mxCell id="DhQfvevI-bPjPN9J5ntj-12" value="Discard pile" style="text;html=1;resizable=0;autosize=1;align=center;verticalAlign=middle;points=[];fillColor=none;strokeColor=none;rounded=0;" vertex="1" parent="1">
          <mxGeometry x="330" y="429" width="80" height="20" as="geometry" />
        </mxCell>
        <mxCell id="DhQfvevI-bPjPN9J5ntj-14" value="" style="edgeStyle=orthogonalEdgeStyle;rounded=0;orthogonalLoop=1;jettySize=auto;html=1;startArrow=diamondThin;startFill=1;endArrow=none;endFill=0;endSize=12;startSize=14;" edge="1" parent="1" source="77sjMMR5Yvf_XChXpcGN-37" target="DhQfvevI-bPjPN9J5ntj-12">
          <mxGeometry relative="1" as="geometry">
            <mxPoint x="435" y="440" as="sourcePoint" />
            <mxPoint x="300" y="440" as="targetPoint" />
            <Array as="points">
              <mxPoint x="420" y="440" />
              <mxPoint x="420" y="440" />
            </Array>
          </mxGeometry>
        </mxCell>
        <mxCell id="DhQfvevI-bPjPN9J5ntj-15" value="Draw pile" style="text;html=1;resizable=0;autosize=1;align=center;verticalAlign=middle;points=[];fillColor=none;strokeColor=none;rounded=0;" vertex="1" parent="1">
          <mxGeometry x="330" y="400" width="70" height="20" as="geometry" />
        </mxCell>
        <mxCell id="DhQfvevI-bPjPN9J5ntj-16" value="" style="endArrow=none;html=1;endSize=12;startArrow=diamondThin;startSize=14;startFill=1;edgeStyle=orthogonalEdgeStyle;align=left;verticalAlign=bottom;rounded=0;" edge="1" parent="1" source="77sjMMR5Yvf_XChXpcGN-37" target="DhQfvevI-bPjPN9J5ntj-15">
          <mxGeometry x="-0.6667" y="-9" relative="1" as="geometry">
            <mxPoint x="435" y="410" as="sourcePoint" />
            <mxPoint x="300" y="410" as="targetPoint" />
            <mxPoint as="offset" />
            <Array as="points">
              <mxPoint x="410" y="410" />
              <mxPoint x="410" y="410" />
            </Array>
          </mxGeometry>
        </mxCell>
        <mxCell id="DhQfvevI-bPjPN9J5ntj-18" value="1" style="text;html=1;resizable=0;autosize=1;align=center;verticalAlign=middle;points=[];fillColor=none;strokeColor=none;rounded=0;" vertex="1" parent="1">
          <mxGeometry x="415" y="449" width="20" height="20" as="geometry" />
        </mxCell>
        <mxCell id="DhQfvevI-bPjPN9J5ntj-21" value="1" style="text;html=1;resizable=0;autosize=1;align=center;verticalAlign=middle;points=[];fillColor=none;strokeColor=none;rounded=0;" vertex="1" parent="1">
          <mxGeometry x="160" y="290" width="20" height="20" as="geometry" />
        </mxCell>
        <mxCell id="DhQfvevI-bPjPN9J5ntj-22" value="1" style="text;html=1;resizable=0;autosize=1;align=center;verticalAlign=middle;points=[];fillColor=none;strokeColor=none;rounded=0;" vertex="1" parent="1">
          <mxGeometry x="290" y="330" width="20" height="20" as="geometry" />
        </mxCell>
        <mxCell id="DhQfvevI-bPjPN9J5ntj-23" value="8" style="text;html=1;resizable=0;autosize=1;align=center;verticalAlign=middle;points=[];fillColor=none;strokeColor=none;rounded=0;" vertex="1" parent="1">
          <mxGeometry x="170" y="367" width="20" height="20" as="geometry" />
        </mxCell>
        <mxCell id="DhQfvevI-bPjPN9J5ntj-24" value="4" style="text;html=1;resizable=0;autosize=1;align=center;verticalAlign=middle;points=[];fillColor=none;strokeColor=none;rounded=0;" vertex="1" parent="1">
          <mxGeometry x="280" y="367" width="20" height="20" as="geometry" />
        </mxCell>
        <mxCell id="DhQfvevI-bPjPN9J5ntj-25" value="1 .. n" style="text;html=1;resizable=0;autosize=1;align=center;verticalAlign=middle;points=[];fillColor=none;strokeColor=none;rounded=0;" vertex="1" parent="1">
          <mxGeometry x="300" y="445" width="40" height="20" as="geometry" />
        </mxCell>
      </root>
    </mxGraphModel>
  </diagram>
</mxfile>
